<svg width="34" height="34" viewBox="0 0 34 34" fill="none" xmlns="http://www.w3.org/2000/svg">
<path d="M28.3332 28.3333L22.5957 22.5958M22.5957 22.5958C23.5166 21.6749 24.2471 20.5817 24.7455 19.3784C25.2438 18.1752 25.5004 16.8857 25.5004 15.5833C25.5004 14.281 25.2438 12.9914 24.7455 11.7882C24.2471 10.585 23.5166 9.4917 22.5957 8.57081C21.6748 7.64992 20.5815 6.91942 19.3783 6.42104C18.1751 5.92265 16.8855 5.66614 15.5832 5.66614C14.2808 5.66614 12.9913 5.92265 11.7881 6.42104C10.5848 6.91942 9.49158 7.64992 8.57069 8.57081C6.71086 10.4306 5.66602 12.9531 5.66602 15.5833C5.66602 18.2135 6.71086 20.736 8.57069 22.5958C10.4305 24.4556 12.953 25.5005 15.5832 25.5005C18.2134 25.5005 20.7359 24.4556 22.5957 22.5958Z" stroke="black" stroke-width="2" stroke-linecap="round" stroke-linejoin="round"/>
</svg>
