<svg width="32" height="32" viewBox="0 0 32 32" fill="none" xmlns="http://www.w3.org/2000/svg">
<path d="M9.39987 8.61597C9.76274 8.7437 10.149 8.79141 10.532 8.75582C10.9151 8.72022 11.2859 8.60217 11.619 8.40977C11.9521 8.21737 12.2397 7.95517 12.4619 7.64116C12.6842 7.32716 12.8358 6.96878 12.9065 6.59064L13.3332 4.2973C15.0876 3.89764 16.9095 3.89764 18.6639 4.2973L19.0932 6.59064C19.1639 6.96878 19.3156 7.32716 19.5378 7.64116C19.7601 7.95517 20.0476 8.21737 20.3807 8.40977C20.7139 8.60217 21.0847 8.72022 21.4677 8.75582C21.8508 8.79141 22.237 8.7437 22.5999 8.61597L24.7985 7.84264C26.0224 9.161 26.9342 10.7377 27.4665 12.456L25.6932 13.976C25.4011 14.2263 25.1667 14.5369 25.006 14.8864C24.8452 15.2358 24.762 15.616 24.762 16.0006C24.762 16.3853 24.8452 16.7654 25.006 17.1149C25.1667 17.4644 25.4011 17.775 25.6932 18.0253L27.4665 19.544C26.9342 21.2623 26.0224 22.8389 24.7985 24.1573L22.5985 23.384C22.2357 23.2562 21.8495 23.2085 21.4664 23.2441C21.0834 23.2797 20.7125 23.3978 20.3794 23.5902C20.0463 23.7826 19.7587 24.0448 19.5365 24.3588C19.3142 24.6728 19.1626 25.0312 19.0919 25.4093L18.6665 27.7026C16.9121 28.1023 15.0903 28.1023 13.3359 27.7026L12.9065 25.4093C12.8358 25.0312 12.6842 24.6728 12.4619 24.3588C12.2397 24.0448 11.9521 23.7826 11.619 23.5902C11.2859 23.3978 10.9151 23.2797 10.532 23.2441C10.149 23.2085 9.76274 23.2562 9.39987 23.384L7.2012 24.1573C5.97733 22.8389 5.06551 21.2623 4.5332 19.544L6.30654 18.024C6.59837 17.7736 6.83262 17.4631 6.99322 17.1138C7.15381 16.7644 7.23696 16.3845 7.23696 16C7.23696 15.6155 7.15381 15.2355 6.99322 14.8862C6.83262 14.5368 6.59837 14.2263 6.30654 13.976L4.5332 12.456C5.06512 10.7378 5.97647 9.16113 7.19987 7.84264L9.39987 8.61597ZM15.9999 12C17.0607 12 18.0782 12.4214 18.8283 13.1715C19.5784 13.9217 19.9999 14.9391 19.9999 16C19.9999 17.0608 19.5784 18.0783 18.8283 18.8284C18.0782 19.5785 17.0607 20 15.9999 20C14.939 20 13.9216 19.5785 13.1714 18.8284C12.4213 18.0783 11.9999 17.0608 11.9999 16C11.9999 14.9391 12.4213 13.9217 13.1714 13.1715C13.9216 12.4214 14.939 12 15.9999 12Z" stroke="black" stroke-width="2" stroke-linecap="round" stroke-linejoin="round"/>
</svg>
