<svg width="34" height="34" viewBox="0 0 34 34" fill="none" xmlns="http://www.w3.org/2000/svg">
<path d="M17 3.1875C9.384 3.1875 3.1875 9.384 3.1875 17C3.1875 24.616 9.384 30.8125 17 30.8125C24.616 30.8125 30.8125 24.616 30.8125 17C30.8125 9.384 24.616 3.1875 17 3.1875ZM17 5.3125C23.4674 5.3125 28.6875 10.5326 28.6875 17C28.6875 23.4674 23.4674 28.6875 17 28.6875C10.5326 28.6875 5.3125 23.4674 5.3125 17C5.3125 10.5326 10.5326 5.3125 17 5.3125ZM15.9375 10.625V15.9375H10.625V18.0625H15.9375V23.375H18.0625V18.0625H23.375V15.9375H18.0625V10.625H15.9375Z" fill="black"/>
</svg>
