<svg width="32" height="32" viewBox="0 0 32 32" fill="none" xmlns="http://www.w3.org/2000/svg">
<path d="M26.6668 25.3333V14C26.6668 13.793 26.6186 13.5888 26.5261 13.4037C26.4335 13.2185 26.2991 13.0575 26.1335 12.9333L16.8002 5.93329C16.5694 5.7602 16.2887 5.66663 16.0002 5.66663C15.7117 5.66663 15.431 5.7602 15.2002 5.93329L5.86683 12.9333C5.70123 13.0575 5.56683 13.2185 5.47426 13.4037C5.38169 13.5888 5.3335 13.793 5.3335 14V25.3333C5.3335 25.6869 5.47397 26.0261 5.72402 26.2761C5.97407 26.5262 6.31321 26.6666 6.66683 26.6666H12.0002C12.3538 26.6666 12.6929 26.5262 12.943 26.2761C13.193 26.0261 13.3335 25.6869 13.3335 25.3333V21.3333C13.3335 20.9797 13.474 20.6405 13.724 20.3905C13.9741 20.1404 14.3132 20 14.6668 20H17.3335C17.6871 20 18.0263 20.1404 18.2763 20.3905C18.5264 20.6405 18.6668 20.9797 18.6668 21.3333V25.3333C18.6668 25.6869 18.8073 26.0261 19.0574 26.2761C19.3074 26.5262 19.6465 26.6666 20.0002 26.6666H25.3335C25.6871 26.6666 26.0263 26.5262 26.2763 26.2761C26.5264 26.0261 26.6668 25.6869 26.6668 25.3333Z" stroke="black" stroke-opacity="0.4" stroke-width="2" stroke-linecap="round" stroke-linejoin="round"/>
</svg>
