<svg width="32" height="32" viewBox="0 0 32 32" fill="none" xmlns="http://www.w3.org/2000/svg">
<path fill-rule="evenodd" clip-rule="evenodd" d="M5.62909 7.15203C6.9776 5.80321 8.76364 4.98056 10.6652 4.83241C12.5667 4.68426 14.4586 5.22035 15.9998 6.34403C17.6281 5.16593 19.6401 4.64365 21.6358 4.881C23.6316 5.11836 25.4649 6.09796 26.7715 7.62511C28.0781 9.15226 28.7622 11.1151 28.6879 13.1236C28.6136 15.132 27.7863 17.0389 26.3704 18.4654L18.8278 26.008C18.0776 26.7579 17.0604 27.1792 15.9998 27.1792C14.9391 27.1792 13.9219 26.7579 13.1718 26.008L5.62909 18.4667C4.12892 16.9664 3.28613 14.9317 3.28613 12.81C3.28613 10.6884 4.12892 8.6523 5.62909 7.15203Z" fill="#2E77D6"/>
</svg>
