<svg width="32" height="32" viewBox="0 0 32 32" fill="none" xmlns="http://www.w3.org/2000/svg">
<path d="M21.333 19.0068C23.0109 19.0068 24.6202 19.6739 25.8066 20.8604C26.993 22.0468 27.6602 23.6561 27.6602 25.334V28.9941H4.33984V25.334C4.33984 23.6561 5.00696 22.0468 6.19336 20.8604C7.37984 19.6739 8.98906 19.0068 10.667 19.0068H21.333ZM10.667 20.9941C9.51595 20.9941 8.41156 21.4507 7.59766 22.2646C6.78382 23.0785 6.32715 24.183 6.32715 25.334V27.0068H25.6729V25.334C25.6729 24.183 25.2162 23.0785 24.4023 22.2646C23.5884 21.4507 22.484 20.9941 21.333 20.9941H10.667ZM6.67188 25.1348C6.6686 25.2006 6.667 25.2667 6.66699 25.333V25.334C6.66699 25.2678 6.66862 25.2015 6.67188 25.1357V25.1348ZM25.3145 24.959C25.3259 25.0809 25.3318 25.2037 25.332 25.3271C25.3318 25.2037 25.3259 25.0809 25.3145 24.959ZM25.2891 24.7461C25.2957 24.7905 25.3006 24.8352 25.3057 24.8799C25.3006 24.8352 25.2957 24.7905 25.2891 24.7461ZM25.1738 24.2188C25.1786 24.2353 25.1829 24.252 25.1875 24.2686C25.1829 24.252 25.1786 24.2353 25.1738 24.2188ZM25.1064 24.0098C25.1193 24.0464 25.1318 24.0831 25.1436 24.1201C25.1318 24.0831 25.1193 24.0464 25.1064 24.0098ZM25.0469 23.8506C25.0607 23.8852 25.0741 23.92 25.0869 23.9551C25.0741 23.92 25.0607 23.8852 25.0469 23.8506ZM24.8936 23.5117C24.905 23.534 24.9158 23.5566 24.9268 23.5791C24.9158 23.5566 24.905 23.534 24.8936 23.5117ZM24.8018 23.3438C24.8167 23.3698 24.8323 23.3955 24.8467 23.4219C24.8323 23.3955 24.8167 23.3698 24.8018 23.3438ZM24.71 23.1914C24.7223 23.2109 24.735 23.2303 24.7471 23.25C24.735 23.2303 24.7224 23.2109 24.71 23.1914ZM7.70117 22.6484C7.61263 22.7462 7.52909 22.8479 7.45117 22.9531C7.49015 22.9004 7.5306 22.8487 7.57227 22.7979L7.70117 22.6484ZM24.5947 23.0195C24.6104 23.0416 24.6264 23.0635 24.6416 23.0859C24.6264 23.0635 24.6104 23.0416 24.5947 23.0195ZM24.4258 22.7959C24.4651 22.8438 24.5031 22.8928 24.54 22.9424C24.5031 22.8928 24.4651 22.8438 24.4258 22.7959ZM8.6123 21.9004C8.38868 22.0342 8.17793 22.1912 7.98242 22.3682L7.83789 22.5049C8.07225 22.2705 8.33251 22.0677 8.6123 21.9004ZM23.4131 21.917C23.6748 22.0761 23.919 22.266 24.1406 22.4844C23.9191 22.2661 23.6747 22.0762 23.4131 21.917ZM23.2461 21.8213C23.2743 21.8366 23.3023 21.8522 23.3301 21.8682C23.3023 21.8521 23.2742 21.8366 23.2461 21.8213ZM23.0615 21.7266C23.1013 21.7456 23.1405 21.7658 23.1797 21.7861C23.1405 21.7658 23.1013 21.7456 23.0615 21.7266ZM22.8984 21.6523C22.9395 21.6698 22.9801 21.6882 23.0205 21.707C22.9801 21.6882 22.9395 21.6698 22.8984 21.6523ZM22.751 21.5938C22.7729 21.602 22.7947 21.6105 22.8164 21.6191C22.7947 21.6105 22.7729 21.602 22.751 21.5938ZM22.5957 21.5381C22.6049 21.5411 22.6139 21.5447 22.623 21.5479C22.6139 21.5447 22.6049 21.5411 22.5957 21.5381ZM22.4111 21.4814C22.4219 21.4845 22.4326 21.4881 22.4434 21.4912C22.4326 21.4881 22.4219 21.4845 22.4111 21.4814ZM22.1826 21.4258C22.2165 21.4331 22.2505 21.44 22.2842 21.4482C22.2505 21.44 22.2165 21.4332 22.1826 21.4258ZM22.0361 21.3965C22.0553 21.3999 22.0746 21.4026 22.0938 21.4062C22.0746 21.4025 22.0553 21.3999 22.0361 21.3965ZM16 3.00684C17.8547 3.00684 19.6338 3.74416 20.9453 5.05566C22.2565 6.36705 22.9931 8.14558 22.9932 10C22.9931 11.8546 22.2567 13.6339 20.9453 14.9453C19.6338 16.2567 17.8547 16.9941 16 16.9941C14.1453 16.9941 12.3662 16.2567 11.0547 14.9453C9.74334 13.6339 9.0069 11.8546 9.00684 10C9.00692 8.14558 9.74354 6.36705 11.0547 5.05566C12.3662 3.74416 14.1453 3.00684 16 3.00684ZM11.0615 15.4209C11.1095 15.4646 11.159 15.5065 11.208 15.5488C11.1647 15.5115 11.1206 15.475 11.0781 15.4365L11.0615 15.4209ZM16 4.99414C14.6722 4.99414 13.3989 5.52113 12.46 6.45996C11.5212 7.3988 10.9933 8.67232 10.9932 10C10.9932 11.3278 11.5211 12.6021 12.46 13.541C13.3989 14.4797 14.6724 15.0068 16 15.0068C17.3276 15.0068 18.6011 14.4797 19.54 13.541C20.4789 12.6021 21.0068 11.3278 21.0068 10C21.0068 8.67232 20.4788 7.3988 19.54 6.45996C18.6011 5.52113 17.3278 4.99414 16 4.99414ZM23.0166 12.1328C22.9124 12.4756 22.7829 12.8101 22.6299 13.1338V13.1328C22.6809 13.0249 22.7297 12.9159 22.7754 12.8057C22.8209 12.6958 22.8632 12.5846 22.9033 12.4727L23.0166 12.1328ZM19.4521 13.1387C19.4104 13.1846 19.3679 13.23 19.3242 13.2744C19.3679 13.23 19.4104 13.1846 19.4521 13.1387ZM19.749 12.7783C19.7154 12.8237 19.6799 12.8678 19.6445 12.9121C19.6799 12.8678 19.7154 12.8237 19.749 12.7783ZM19.8604 12.6201C19.8429 12.6458 19.8246 12.6709 19.8066 12.6963C19.8246 12.6709 19.8429 12.6458 19.8604 12.6201ZM19.9834 12.4287C19.965 12.4589 19.9459 12.4887 19.9268 12.5186C19.9459 12.4887 19.965 12.4589 19.9834 12.4287ZM20.0947 12.2354C20.0773 12.2672 20.0592 12.2986 20.041 12.3301C20.0592 12.2986 20.0773 12.2672 20.0947 12.2354ZM20.2031 12.0254C20.1857 12.0615 20.1677 12.0972 20.1494 12.1328C20.1677 12.0972 20.1857 12.0615 20.2031 12.0254ZM20.2891 11.834C20.2717 11.8746 20.2539 11.915 20.2354 11.9551C20.2539 11.915 20.2717 11.8746 20.2891 11.834ZM23.3242 10.3633C23.3062 10.726 23.2609 11.0849 23.1904 11.4375C23.2374 11.2024 23.2731 10.9646 23.2969 10.7246L23.3242 10.3633ZM20.3711 11.6289C20.3576 11.6651 20.3445 11.7014 20.3301 11.7373C20.3445 11.7014 20.3576 11.6651 20.3711 11.6289ZM20.46 11.3711C20.4428 11.4269 20.4235 11.482 20.4043 11.5371C20.4235 11.482 20.4428 11.4269 20.46 11.3711ZM20.5078 11.2021C20.4963 11.2453 20.4844 11.2883 20.4717 11.3311C20.4844 11.2883 20.4963 11.2453 20.5078 11.2021ZM20.5791 10.8975C20.6073 10.7534 20.629 10.6078 20.6436 10.4609L20.6611 10.2314C20.65 10.4563 20.622 10.6787 20.5791 10.8975ZM11.3379 9.76953C11.3423 9.67959 11.3508 9.5901 11.3604 9.50098C11.3508 9.58976 11.3433 9.67896 11.3389 9.76855L11.3379 9.76953ZM22.7754 7.19336C23.0949 7.96468 23.2823 8.7907 23.3242 9.63672L23.333 10C23.333 9.02765 23.1403 8.07471 22.7754 7.19336ZM20.6152 9.31055H20.6162H20.6152ZM9.22461 7.19336C8.95088 7.85448 8.77452 8.55584 8.70312 9.27539C8.77457 8.55581 8.95075 7.85445 9.22461 7.19336ZM11.3936 9.26074C11.4014 9.21213 11.4086 9.16349 11.418 9.11523C11.4086 9.16349 11.4014 9.21213 11.3936 9.26074ZM11.4404 9.00684C11.4482 8.97125 11.4563 8.93575 11.4648 8.90039C11.4563 8.93575 11.4482 8.97125 11.4404 9.00684ZM11.4922 8.79395C11.5026 8.7551 11.513 8.71627 11.5244 8.67773C11.513 8.71627 11.5026 8.7551 11.4922 8.79395ZM11.5674 8.54395C11.5748 8.52145 11.5821 8.49894 11.5898 8.47656C11.5821 8.49894 11.5748 8.52144 11.5674 8.54395ZM11.627 8.37109C11.6401 8.33574 11.6539 8.30064 11.668 8.26562C11.6539 8.30064 11.6401 8.33574 11.627 8.37109ZM20.3115 8.21387C20.2535 8.07383 20.1886 7.93661 20.1172 7.80273C20.1529 7.86968 20.1873 7.93731 20.2197 8.00586L20.3115 8.21387ZM11.7051 8.1748C11.7241 8.13016 11.7443 8.08604 11.7646 8.04199C11.7443 8.08604 11.7241 8.13015 11.7051 8.1748ZM11.8008 7.96582C11.8171 7.93216 11.8335 7.89851 11.8506 7.86523C11.8335 7.89851 11.8171 7.93215 11.8008 7.96582ZM11.9014 7.76855C11.9175 7.73899 11.9344 7.70989 11.9512 7.68066C11.9344 7.70989 11.9175 7.73899 11.9014 7.76855ZM12.0176 7.56738C12.0296 7.54766 12.0423 7.52834 12.0547 7.50879C12.0423 7.52834 12.0296 7.54766 12.0176 7.56738ZM12.1309 7.39062C12.1533 7.35733 12.1769 7.32474 12.2002 7.29199C12.1769 7.32474 12.1533 7.35733 12.1309 7.39062ZM18.9648 6.39648C19.0808 6.49185 19.1927 6.59314 19.2998 6.7002C19.3543 6.75471 19.4075 6.81031 19.459 6.86719C19.4075 6.81033 19.3543 6.7547 19.2998 6.7002C19.1927 6.5931 19.0808 6.4919 18.9648 6.39648ZM12.3174 7.13477C12.3444 7.10005 12.3714 7.06525 12.3994 7.03125L12.541 6.86816C12.4629 6.95443 12.3884 7.04344 12.3174 7.13477ZM12.8682 6.54004V6.54102V6.54004ZM18.7891 6.25879C18.8307 6.28981 18.8715 6.32202 18.9121 6.35449C18.8715 6.32202 18.8307 6.28982 18.7891 6.25879ZM18.6025 6.12695C18.6438 6.15468 18.6842 6.18381 18.7246 6.21289C18.6842 6.1838 18.6438 6.15469 18.6025 6.12695ZM18.417 6.00879C18.4582 6.0337 18.4986 6.05973 18.5391 6.08594C18.4986 6.05972 18.4582 6.03371 18.417 6.00879ZM18.2305 5.90137C18.2699 5.92281 18.3088 5.94518 18.3477 5.96777C18.3088 5.94517 18.2699 5.92282 18.2305 5.90137ZM18.0195 5.79395C18.0642 5.81535 18.1084 5.83752 18.1523 5.86035C18.1084 5.83751 18.0641 5.81537 18.0195 5.79395ZM17.834 5.70996C17.8766 5.72817 17.9189 5.74713 17.9609 5.7666C17.9189 5.74712 17.8766 5.72818 17.834 5.70996ZM17.6367 5.63086C17.6704 5.64347 17.7039 5.65654 17.7373 5.66992C17.7039 5.65653 17.6704 5.64348 17.6367 5.63086ZM17.4463 5.56445C17.4714 5.57262 17.4966 5.58028 17.5215 5.58887C17.4966 5.58027 17.4714 5.57263 17.4463 5.56445ZM17.2275 5.49902C17.2546 5.5064 17.2817 5.51363 17.3086 5.52148C17.2817 5.51362 17.2546 5.5064 17.2275 5.49902ZM17.0068 5.44434C17.0408 5.45183 17.0747 5.45953 17.1084 5.46777C17.0747 5.45952 17.0408 5.45184 17.0068 5.44434ZM16.7979 5.40332C16.8271 5.4084 16.8566 5.41234 16.8857 5.41797C16.8566 5.41233 16.8271 5.4084 16.7979 5.40332ZM16.585 5.37109C16.6133 5.37467 16.6417 5.37774 16.6699 5.38184C16.6417 5.37774 16.6133 5.37467 16.585 5.37109ZM25.2607 24.583C25.2699 24.6307 25.2788 24.6785 25.2861 24.7266C25.2787 24.6785 25.2699 24.6307 25.2607 24.583ZM24.3711 22.7324C24.3893 22.7537 24.4081 22.7743 24.4258 22.7959C24.4081 22.7743 24.3893 22.7537 24.3711 22.7324ZM19.6025 12.9648C19.5631 13.0127 19.5219 13.0591 19.4805 13.1055C19.5219 13.0591 19.5631 13.0127 19.6025 12.9648ZM20.5693 10.9414C20.5576 10.9983 20.5451 11.055 20.5312 11.1113C20.5451 11.055 20.5576 10.9983 20.5693 10.9414ZM8.69922 10.6914C8.69965 10.696 8.69976 10.7005 8.7002 10.7051C8.69976 10.7005 8.69965 10.696 8.69922 10.6914Z" fill="black" fill-opacity="0.4"/>
</svg>
