<svg width="32" height="32" viewBox="0 0 32 32" fill="none" xmlns="http://www.w3.org/2000/svg">
<path fill-rule="evenodd" clip-rule="evenodd" d="M4 13.9814C4 9.23276 4 6.85779 5.47585 5.3832C6.9517 3.90861 9.32541 3.90735 14.0741 3.90735H16.5926C21.3413 3.90735 23.7162 3.90735 25.1908 5.3832C26.6654 6.85905 26.6667 9.23276 26.6667 13.9814V19.0185C26.6667 23.7671 26.6667 26.1421 25.1908 27.6167C23.715 29.0913 21.3413 29.0925 16.5926 29.0925H14.0741C9.32541 29.0925 6.95044 29.0925 5.47585 27.6167C4.00126 26.1408 4 23.7671 4 19.0185V13.9814ZM7.77778 16.4999C7.77778 14.7193 7.77778 13.8291 8.33185 13.2762C8.88341 12.7222 9.7737 12.7222 11.5556 12.7222H19.1111C20.8917 12.7222 21.782 12.7222 22.3348 13.2762C22.8889 13.8291 22.8889 14.7193 22.8889 16.4999V21.537C22.8889 23.3176 22.8889 24.2079 22.3348 24.7607C21.782 25.3148 20.8917 25.3148 19.1111 25.3148H11.5556C9.77496 25.3148 8.88467 25.3148 8.33185 24.7607C7.77778 24.2091 7.77778 23.3188 7.77778 21.537V16.4999ZM9.03704 7.99994C8.78655 7.99994 8.54633 8.09944 8.36921 8.27656C8.1921 8.45368 8.09259 8.6939 8.09259 8.94439C8.09259 9.19487 8.1921 9.43509 8.36921 9.61221C8.54633 9.78933 8.78655 9.88883 9.03704 9.88883H15.3333C15.5838 9.88883 15.824 9.78933 16.0012 9.61221C16.1783 9.43509 16.2778 9.19487 16.2778 8.94439C16.2778 8.6939 16.1783 8.45368 16.0012 8.27656C15.824 8.09944 15.5838 7.99994 15.3333 7.99994H9.03704Z" fill="#2E77D6"/>
</svg>
