<svg width="32" height="32" viewBox="0 0 32 32" fill="none" xmlns="http://www.w3.org/2000/svg">
<path d="M5.3335 13.4815C5.3335 9.01215 5.3335 6.77689 6.72253 5.38904C8.11157 4.00119 10.3456 4 14.815 4H17.1853C21.6547 4 23.8899 4 25.2778 5.38904C26.6656 6.77807 26.6668 9.01215 26.6668 13.4815V18.2222C26.6668 22.6916 26.6668 24.9268 25.2778 26.3147C23.8888 27.7025 21.6547 27.7037 17.1853 27.7037H14.815C10.3456 27.7037 8.11038 27.7037 6.72253 26.3147C5.33468 24.9256 5.3335 22.6916 5.3335 18.2222V13.4815Z" stroke="black" stroke-opacity="0.4" stroke-width="1.5"/>
<path d="M8.88916 15.8518C8.88916 14.176 8.88916 13.338 9.41064 12.8177C9.92975 12.2963 10.7677 12.2963 12.4447 12.2963H19.5558C21.2317 12.2963 22.0696 12.2963 22.5899 12.8177C23.1114 13.338 23.1114 14.176 23.1114 15.8518V20.5926C23.1114 22.2684 23.1114 23.1063 22.5899 23.6266C22.0696 24.1481 21.2317 24.1481 19.5558 24.1481H12.4447C10.7689 24.1481 9.93094 24.1481 9.41064 23.6266C8.88916 23.1075 8.88916 22.2696 8.88916 20.5926V15.8518Z" stroke="black" stroke-opacity="0.4" stroke-width="1.5"/>
<path d="M10.0742 8.74072H16.0001" stroke="black" stroke-opacity="0.4" stroke-width="1.5" stroke-linecap="round"/>
</svg>
