<svg width="32" height="32" viewBox="0 0 32 32" fill="none" xmlns="http://www.w3.org/2000/svg">
<path d="M25.4279 17.5227L17.8853 25.0667C17.3852 25.5666 16.7071 25.8474 15.9999 25.8474C15.2928 25.8474 14.6147 25.5666 14.1146 25.0667L6.57194 17.524C5.94844 16.9059 5.45315 16.1708 5.11452 15.3608C4.77588 14.5508 4.60057 13.6819 4.59865 12.8039C4.59673 11.926 4.76823 11.0563 5.10331 10.2449C5.4384 9.43339 5.93046 8.6961 6.55125 8.0753C7.17205 7.45451 7.90935 6.96244 8.72082 6.62736C9.5323 6.29228 10.402 6.12077 11.2799 6.1227C12.1578 6.12462 13.0267 6.29993 13.8367 6.63856C14.6467 6.9772 15.3819 7.47249 15.9999 8.09599C17.2554 6.87182 18.9425 6.19155 20.696 6.20253C22.4494 6.21352 24.1279 6.91488 25.3679 8.15469C26.6079 9.3945 27.3095 11.0729 27.3207 12.8264C27.332 14.5798 26.6519 16.2671 25.4279 17.5227Z" stroke="black" stroke-opacity="0.4" stroke-width="2" stroke-linecap="round" stroke-linejoin="round"/>
</svg>
