<svg width="32" height="32" viewBox="0 0 32 32" fill="none" xmlns="http://www.w3.org/2000/svg">
<path d="M8.66667 9.99996C8.66667 8.05504 9.43928 6.18978 10.8145 4.81451C12.1898 3.43924 14.0551 2.66663 16 2.66663C17.9449 2.66663 19.8102 3.43924 21.1855 4.81451C22.5607 6.18978 23.3333 8.05504 23.3333 9.99996C23.3333 11.9449 22.5607 13.8101 21.1855 15.1854C19.8102 16.5607 17.9449 17.3333 16 17.3333C14.0551 17.3333 12.1898 16.5607 10.8145 15.1854C9.43928 13.8101 8.66667 11.9449 8.66667 9.99996ZM4 25.3333C4 23.5652 4.70238 21.8695 5.95262 20.6192C7.20286 19.369 8.89856 18.6666 10.6667 18.6666H21.3333C23.1014 18.6666 24.7971 19.369 26.0474 20.6192C27.2976 21.8695 28 23.5652 28 25.3333V29.3333H4V25.3333Z" fill="#2E77D6"/>
</svg>
