<svg width="32" height="32" viewBox="0 0 32 32" fill="none" xmlns="http://www.w3.org/2000/svg">
<path d="M26.6668 26.6667L21.2668 21.2667M21.2668 21.2667C22.1335 20.4 22.8211 19.371 23.2901 18.2386C23.7592 17.1062 24.0006 15.8924 24.0006 14.6667C24.0006 13.441 23.7592 12.2272 23.2901 11.0948C22.8211 9.96237 22.1335 8.93342 21.2668 8.06669C20.4001 7.19997 19.3711 6.51245 18.2387 6.04338C17.1063 5.57431 15.8926 5.33289 14.6668 5.33289C13.4411 5.33289 12.2274 5.57431 11.0949 6.04338C9.96249 6.51245 8.93354 7.19997 8.06682 8.0667C6.31639 9.81712 5.33301 12.1912 5.33301 14.6667C5.33301 17.1422 6.31639 19.5163 8.06682 21.2667C9.81725 23.0171 12.1913 24.0005 14.6668 24.0005C17.1423 24.0005 19.5164 23.0171 21.2668 21.2667Z" stroke="black" stroke-opacity="0.4" stroke-width="2" stroke-linecap="round" stroke-linejoin="round"/>
</svg>
